<svg xmlns="http://www.w3.org/2000/svg" viewBox="0 0 132.29 132.29"><path d="M56.2 109.73V95.4H22.52l24.36-28.27c6-6.98 9.3-11.51 9.3-19.96 0-15.67-11.02-25.34-26.44-25.34-14.94 0-26.57 9.55-26.57 25.46H19.1c0-8.44 5.38-11.14 10.65-11.14 6.73 0 10.53 4.41 10.53 10.9 0 4.04-1.35 6.73-4.53 10.53L3.18 95.4v14.33zM129.1 82.92h-17.25c-1.72 7.1-6.25 12.36-14.7 12.36-4.65 0-8.44-1.71-10.89-4.53-3.18-3.67-4.28-7.96-4.28-24.6 0-16.65 1.1-20.94 4.28-24.61 2.45-2.82 6.24-4.53 10.9-4.53 8.44 0 12.85 5.26 14.56 12.36h17.39c-3.18-18.24-15.67-27.54-31.95-27.54-10.04 0-17.39 3.3-23.39 9.18-8.69 8.7-8.8 18.49-8.8 35.14 0 16.64.11 26.44 8.8 35.13 6 5.88 13.35 9.18 23.39 9.18 16.16 0 28.77-9.3 31.95-27.54z"/></svg>
